<svg xmlns="http://www.w3.org/2000/svg" viewBox="0 0 880 480" width="880" height="480" font-family="ui-sans-serif, system-ui, -apple-system, 'Segoe UI', Helvetica, Arial, sans-serif">
  <defs>
    <marker id="ah" viewBox="0 0 10 10" refX="8" refY="5" markerWidth="7" markerHeight="7" orient="auto-start-reverse">
      <path d="M0,0 L10,5 L0,10 z" fill="context-stroke"/>
    </marker>
  </defs>

  <!-- card background -->
  <rect x="2" y="2" width="876" height="476" rx="16" fill="#0d1117" stroke="#21262d" stroke-width="1.5"/>

  <text x="40" y="46" font-size="21" font-weight="600" fill="#e6edf3">Highly available routing peers</text>

  <!-- NetBird overlay zone -->
  <rect x="40" y="80" width="230" height="356" rx="14" fill="#0f1b2d" stroke="#1f4f8f" stroke-width="1.5"/>
  <text x="62" y="110" font-size="15" font-weight="600" fill="#58a6ff">NetBird overlay</text>

  <!-- client -->
  <rect x="66" y="236" width="180" height="78" rx="12" fill="#15294a" stroke="#4d8bf0" stroke-width="1.5"/>
  <text x="156" y="270" text-anchor="middle" font-size="14" fill="#dbeafe">Your laptop</text>
  <text x="156" y="290" text-anchor="middle" font-size="12" fill="#93b6e6">NetBird client</text>

  <!-- Kubernetes cluster zone -->
  <rect x="330" y="80" width="510" height="356" rx="14" fill="#0d1f15" stroke="#1f6f3a" stroke-width="1.5"/>
  <text x="352" y="110" font-size="15" font-weight="600" fill="#3fb950">Kubernetes cluster</text>

  <!-- node 1 -->
  <rect x="360" y="132" width="330" height="84" rx="10" fill="#161b22" stroke="#30363d" stroke-width="1"/>
  <text x="376" y="154" font-size="12" fill="#8b949e">node-1</text>
  <rect x="470" y="152" width="200" height="44" rx="8" fill="#122a1c" stroke="#2ea043" stroke-width="1.5"/>
  <text x="570" y="179" text-anchor="middle" font-size="13" fill="#56d364">routing-peer pod</text>

  <!-- node 2 -->
  <rect x="360" y="240" width="330" height="84" rx="10" fill="#161b22" stroke="#30363d" stroke-width="1"/>
  <text x="376" y="262" font-size="12" fill="#8b949e">node-2</text>
  <rect x="470" y="260" width="200" height="44" rx="8" fill="#122a1c" stroke="#2ea043" stroke-width="1.5"/>
  <text x="570" y="287" text-anchor="middle" font-size="13" fill="#56d364">routing-peer pod</text>

  <!-- node 3 -->
  <rect x="360" y="348" width="330" height="84" rx="10" fill="#161b22" stroke="#30363d" stroke-width="1"/>
  <text x="376" y="370" font-size="12" fill="#8b949e">node-3</text>
  <rect x="470" y="368" width="200" height="44" rx="8" fill="#122a1c" stroke="#2ea043" stroke-width="1.5"/>
  <text x="570" y="395" text-anchor="middle" font-size="13" fill="#56d364">routing-peer pod</text>

  <!-- service -->
  <rect x="735" y="235" width="92" height="80" rx="12" fill="#11272b" stroke="#2bb3c0" stroke-width="1.5"/>
  <text x="781" y="269" text-anchor="middle" font-size="14" fill="#9fe7ef">Service</text>
  <text x="781" y="289" text-anchor="middle" font-size="13" fill="#5fcdd8">nginx</text>

  <!-- client -> routing peers (overlay) -->
  <polyline points="246,274 470,174" fill="none" stroke="#4d8bf0" stroke-width="2" marker-end="url(#ah)"/>
  <polyline points="246,274 470,282" fill="none" stroke="#4d8bf0" stroke-width="2" marker-end="url(#ah)"/>
  <polyline points="246,274 470,390" fill="none" stroke="#4d8bf0" stroke-width="2" marker-end="url(#ah)"/>

  <!-- routing peers -> service -->
  <polyline points="670,174 735,266" fill="none" stroke="#3fb950" stroke-width="2" marker-end="url(#ah)"/>
  <polyline points="670,282 735,274" fill="none" stroke="#3fb950" stroke-width="2" marker-end="url(#ah)"/>
  <polyline points="670,390 735,283" fill="none" stroke="#3fb950" stroke-width="2" marker-end="url(#ah)"/>

  <text x="40" y="463" font-size="13" fill="#8b949e">Clients reach the Service through any routing peer — lose a peer or a node and traffic fails over automatically.</text>
</svg>
